STARTFONT 2.1
FONT HAN-GB2312
SIZE 14 72 72
FONTBOUNDINGBOX 6 14 0 0
STARTPROPERTIES 1
BITCOUNT 8
ENDPROPERTIES
CHARS 27
STARTCHAR  00A4
ENCODING  164
SWIDTH  1000 0
DWIDTH  8 0
BBX  7 7 1 1
BITMAP
30400010006010
A0FFE0FFC0FF60
10F0A040E0E000
40FF200060FF10
10F08020A0E000
80FFF0FFF0FF60
60601040008030
ENDCHAR
STARTCHAR  00A7
ENCODING  167
SWIDTH  1000 0
DWIDTH  6 0
BBX  5 10 1 0
BITMAP
10C0FFC010
80F060E060
60F0402020
40FFFFA000
F0A030E060
E0E040A080
20C0FFFF20
202040F060
A0E060F080
20E0FFC010
ENDCHAR
STARTCHAR  00A8
ENCODING  168
SWIDTH  1000 0
DWIDTH  6 0
BBX  6 13 0 0
BITMAP
001000001000
40FF2040FF20
104000104000
40FFFFFFFF60
40FF60606020
40FF20000000
40FF30101000
40FFFFFFFF10
40FF60404000
40FF20000000
40FF20000000
40FF60606020
40FFFFFFFF60
ENDCHAR
STARTCHAR  00B0
ENCODING  176
SWIDTH  1000 0
DWIDTH  6 0
BBX  6 5 0 5
BITMAP
0080F0E06000
30FFA0C0F000
40FF6080FF10
00C0FFFFA000
000030300000
ENDCHAR
STARTCHAR  00B1
ENCODING  177
SWIDTH  1000 0
DWIDTH  8 0
BBX  6 7 1 0
BITMAP
0040FF200000
1060FF301010
FFFFFFFFFFFF
4080FF604040
0040FF200000
606060606060
FFFFFFFFFFFF
ENDCHAR
STARTCHAR  00B7
ENCODING  183
SWIDTH  1000 0
DWIDTH  5 0
BBX  3 3 1 3
BITMAP
001000
30FF10
003000
ENDCHAR
STARTCHAR  00D7
ENCODING  215
SWIDTH  1000 0
DWIDTH  6 0
BBX  6 10 0 0
BITMAP
40FF2040FF20
40FF2040FF20
40FF2040FF20
40FF2040FF20
40FF6060FF20
10E0FFFFFF20
00104060FF20
00000040FF20
00000040FF20
00000040FF20
ENDCHAR
STARTCHAR  00E0
ENCODING  224
SWIDTH  1000 0
DWIDTH  6 0
BBX  6 7 0 0
BITMAP
0080F0F06000
20FFA0A0FF10
00201060FF20
00C0FFFFFF20
40FFA080FF20
40FF6080FF20
10C0FFC0FF20
ENDCHAR
STARTCHAR  00E1
ENCODING  225
SWIDTH  1000 0
DWIDTH  6 0
BBX  6 10 0 0
BITMAP
00000080FF00
0060E0FFA000
10F080200000
40F0A0FFA000
40FFA0A0FF10
40FF2040FF20
40FF2040FF20
40FF2040FF20
30FF80A0FF10
0080F0F06000
ENDCHAR
STARTCHAR  00E8
ENCODING  232
SWIDTH  1000 0
DWIDTH  6 0
BBX  6 7 0 0
BITMAP
40FF2040FF20
40FF20A0FF20
40FF40FFFF20
40FFE0E0FF20
40FFF060FF20
40FF8040FF20
40FF2040FF20
ENDCHAR
STARTCHAR  00E9
ENCODING  233
SWIDTH  1000 0
DWIDTH  6 0
BBX  6 10 0 0
BITMAP
00A080A06000
0060FFFF3000
000030200000
40FF2040FF20
40FF20A0FF20
40FF40FFFF20
40FFE0E0FF20
40FFF060FF20
40FF8040FF20
40FF2040FF20
ENDCHAR
STARTCHAR  00EA
ENCODING  234
SWIDTH  1000 0
DWIDTH  6 0
BBX  6 7 0 0
BITMAP
40FF2040F040
40FF20A0C020
40FF30E08000
40FFFFFF3000
40FF60F06000
40FF20A0C000
40FF2040FF20
ENDCHAR
STARTCHAR  00EC
ENCODING  236
SWIDTH  1000 0
DWIDTH  7 0
BBX  7 7 0 0
BITMAP
40FF400060FF20
40FFA000C0FF20
40FFF020FFFF20
40FFE0C0E0FF20
40FF80FF80FF20
40FF30E040FF20
40FF200040FF20
ENDCHAR
STARTCHAR  00ED
ENCODING  237
SWIDTH  1000 0
DWIDTH  6 0
BBX  6 7 0 0
BITMAP
40FF2040FF20
40FF2040FF20
40FF3060FF20
40FFFFFFFF20
40FF6080FF20
40FF2040FF20
40FF2040FF20
ENDCHAR
STARTCHAR  00F2
ENCODING  242
SWIDTH  1000 0
DWIDTH  6 0
BBX  4 7 1 0
BITMAP
FFFFFFFF
6080FF60
0040FF20
0040FF20
0040FF20
0040FF20
0040FF20
ENDCHAR
STARTCHAR  00F3
ENCODING  243
SWIDTH  1000 0
DWIDTH  5 0
BBX  6 10 0 -3
BITMAP
80FF1030FF30
30FF4060F000
00E080A0C000
00A0C0C08000
0040FFF04000
0000F0FF1000
0000C0E00000
0000C0800000
0060FF400000
00FFC0000000
ENDCHAR
STARTCHAR  00F7
ENCODING  247
SWIDTH  1000 0
DWIDTH  6 0
BBX  6 7 0 0
BITMAP
40FF2040FF20
40FF2040FF20
40FF3060FF20
20F0FFFFFF20
00103060FF20
00000040FF20
00000040FF20
ENDCHAR
STARTCHAR  00F9
ENCODING  249
SWIDTH  1000 0
DWIDTH  8 0
BBX  9 9 0 -2
BITMAP
40FF2040FF60FF2000
40FF2040FF60FF2000
40FF2040FF60FF2000
40FF2040FF60FF2000
40FF2040FF60FF2000
40FF6080FF80FF6000
40FFFFFFFFFFFFFF20
00000000000040FF20
000000000000206010
ENDCHAR
STARTCHAR  00FA
ENCODING  250
SWIDTH  1000 0
DWIDTH  6 0
BBX  6 7 0 0
BITMAP
C0FFFF200000
4080FF200000
0040FF300000
0040FFFFF060
0040FF60C0C0
0040FF60C0C0
0040FFFFF040
ENDCHAR
STARTCHAR  00FC
ENCODING  252
SWIDTH  1000 0
DWIDTH  5 0
BBX  5 7 0 0
BITMAP
40FF200000
40FF200000
40FF300000
40FFFFF040
40FF60C0C0
40FF60C0C0
40FFFFE040
ENDCHAR
STARTCHAR  2014
ENCODING  8212
SWIDTH  1000 0
DWIDTH  9 0
BBX  9 3 0 3
BITMAP
102020202020202010
80FFFFFFFFFFFFFF80
204040404040404020
ENDCHAR
STARTCHAR  2018
ENCODING  8216
SWIDTH  1000 0
DWIDTH  3 0
BBX  3 3 0 7
BITMAP
006020
30FF20
40FF20
ENDCHAR
STARTCHAR  2019
ENCODING  8217
SWIDTH  1000 0
DWIDTH  3 0
BBX  3 3 0 7
BITMAP
40FF20
40F010
403000
ENDCHAR
STARTCHAR  201C
ENCODING  8220
SWIDTH  1000 0
DWIDTH  6 0
BBX  6 3 0 7
BITMAP
006020006010
30FF2030FF20
40FF2040FF20
ENDCHAR
STARTCHAR  201D
ENCODING  8221
SWIDTH  1000 0
DWIDTH  6 0
BBX  6 3 0 7
BITMAP
40FF2040FF20
40F01040F010
403000403000
ENDCHAR
STARTCHAR  2026
ENCODING  8230
SWIDTH  1000 0
DWIDTH  8 0
BBX  8 2 0 0
BITMAP
2060102060206010
40FF2040FF60FF20
ENDCHAR
STARTCHAR  2030
ENCODING  8240
SWIDTH  1000 0
DWIDTH  13 0
BBX  13 10 0 0
BITMAP
10C0FFA000A080000000000000
40FFA0FF20F020000000000000
40FF60FF60C000000000000000
40FF80FFC06000000000000000
20F0FFE0F01000000000000000
00204060C0C0E0A010C0E0A000
000000A0A0FF80FF60FF80FF10
000010F060FF60FF60FF60FF20
000060C040FFA0FF60FFA0FF10
0000A06010E0FFA010E0FFA000
ENDCHAR
ENDFONT
